<?xml version="1.0" encoding="utf-8"?>
<!-- Generator: Adobe Illustrator 24.1.1, SVG Export Plug-In . SVG Version: 6.00 Build 0)  -->
<svg version="1.1" id="Layer_1" xmlns="http://www.w3.org/2000/svg" xmlns:xlink="http://www.w3.org/1999/xlink" x="0px" y="0px"
	 viewBox="0 0 512 512" style="enable-background:new 0 0 512 512;" xml:space="preserve">
<g>
	<path d="M410.6,349.4c10.2-21.9,15.9-46.3,15.9-72c0-94.3-76.4-170.7-170.7-170.7c-94.3,0-170.7,76.4-170.7,170.7
		c0,27.2,6.4,53,17.7,75.8l38.2-19c-8.5-17.1-13.3-36.4-13.3-56.8c0-35.4,14.3-67.3,37.5-90.5c23.2-23.2,55.1-37.5,90.5-37.5
		c35.4,0,67.3,14.3,90.5,37.5c23.2,23.2,37.5,55.1,37.5,90.5c0,19.4-4.3,37.6-11.9,54L410.6,349.4L410.6,349.4z M255.8,64v21.3
		c23.6,0,42.7-19.1,42.7-42.7c0-23.6-19.1-42.7-42.7-42.7c-23.6,0-42.7,19.1-42.7,42.7c0,23.6,19.1,42.7,42.7,42.7V64V42.7l0,0v0v0
		V64z M255.8,490.7V512c23.6,0,42.7-19.1,42.7-42.7c0-23.6-19.1-42.7-42.7-42.7c-23.6,0-42.7,19.1-42.7,42.7
		c0,23.6,19.1,42.7,42.7,42.7V490.7v-21.3l0,0v0v0V490.7z M277.2,128V64h-42.7v64H277.2z M191.8,298.7V320
		c23.6,0,42.7-19.1,42.7-42.7c0-23.6-19.1-42.7-42.7-42.7c-23.6,0-42.7,19.1-42.7,42.7c0,23.6,19.1,42.7,42.7,42.7V298.7v-21.3h0
		l0,0v0V298.7z M319.8,298.7V320c23.6,0,42.7-19.1,42.7-42.7c0-23.6-19.1-42.7-42.7-42.7c-23.6,0-42.7,19.1-42.7,42.7
		c0,23.6,19.1,42.7,42.7,42.7V298.7v-21.3l0,0v0v0V298.7z M127.8,405.1l20.2-6.8l-21.3-63.7l-20.2,6.8l21.2,2l-6.7-0.6l6.7,0.9
		l0-0.2l-6.7-0.6l6.7,0.9l0.1-0.8l0.1-0.4l-8.6-3l6.8,5.8c1.7-2.1,1.7-2.8,1.8-2.8l-8.6-3l6.8,5.8l-12-10.3l7.4,13.9
		c2.2-1.2,3.7-2.6,4.6-3.6l-12-10.3l7.4,13.9l-8.1-15.1l0,17.1c2.8,0,5.9-0.8,8.1-2l-8.1-15.1l0,17.1v-14.4l-7.8,12.3
		c1,0.7,3.8,2.1,7.8,2.1v-14.4l-7.8,12.3l0,0c23.8,15,73.1,35.3,150.1,35.3c79.5,0,127.6-20.4,150.5-35.6l3-2l-3,2l-8.9-13.4V351
		c4.1,0,7.4-1.5,8.9-2.5l-8.9-13.4V351v-17.3l-8.3,15.2c2.1,1.2,5.1,2.1,8.3,2.1v-17.3l-8.3,15.2l6.5-12l-11.7,7.5
		c0.5,0.6,1.5,2.4,5.1,4.5l6.5-12l-11.7,7.5l4.7-3l-5,2.5l0.3,0.5l4.7-3l-5,2.5l0.3-0.1l-0.3,0.1l0,0l0.3-0.1l-0.3,0.1l0.4,1.2
		l0.1,0.5l5.3-1.2l-5.3,1l0,0.2l5.3-1.2l-5.3,1l21-4l-20.2-6.8l-21.3,63.7l20.2,6.8l-19.1-9.5l11.5,5.7l-11.1-6.4l-0.4,0.7l11.5,5.7
		l-11.1-6.4l1.3,0.7l-1.2-0.8l0,0l1.3,0.7l-1.2-0.8c-0.2,0.3-4.6,7.6-20.3,15.6c-15.7,7.9-43.1,16.2-89,16.2
		c-50.6,0-78.6-10.1-93.4-18.6c-7.4-4.3-11.6-8.2-13.8-10.6l-1.9-2.4l-0.1-0.2l-7.5,4.7l7.9-3.9l-0.4-0.8l-7.5,4.7l7.9-3.9
		L127.8,405.1l20.2-6.8L127.8,405.1l-19.1,9.5c1.5,3.2,9.9,17.6,32.4,30.5c22.5,13,58.5,24.3,114.7,24.3
		c56.2,0,92.2-11.3,114.7-24.3c22.5-12.9,30.9-27.3,32.4-30.5l0.6-1.3l23.6-70.4l-1-5.5c-0.2-0.8-0.9-4.7-3.1-10.2
		c-1.2-2.8-2.7-6-6.2-9.9c-1.7-1.9-4-4-7.3-5.8c-3.2-1.8-7.6-3.1-12.1-3.1c-5.9,0-11.1,2.1-14.7,4.6l0,0
		c-14.8,9.8-54.8,28.5-126.9,28.4c-69.2,0.1-111.3-18.5-127.2-28.7l0,0c-3.7-2.4-8.9-4.6-15.1-4.6c-4.3,0-8.8,1.2-12.2,3.1
		c-6.1,3.4-9,7.7-10.9,10.9c-2.8,5-3.6,8.8-4.3,11.7c-0.6,2.9-0.8,4.9-0.9,5.5l-0.4,4.5l23.2,69.4l0.6,1.3L127.8,405.1z"/>
</g>
</svg>
